<?xml version="1.0" encoding="utf-8"?>
<!-- Generator: Adobe Illustrator 16.0.0, SVG Export Plug-In . SVG Version: 6.00 Build 0)  -->
<!DOCTYPE svg PUBLIC "-//W3C//DTD SVG 1.1//EN" "http://www.w3.org/Graphics/SVG/1.1/DTD/svg11.dtd">
<svg version="1.1" id="Layer_1" xmlns="http://www.w3.org/2000/svg" xmlns:xlink="http://www.w3.org/1999/xlink" x="0px" y="0px"
	 width="2123.61px" height="2272.15px" viewBox="0 0 2123.61 2272.15" enable-background="new 0 0 2123.61 2272.15"
	 xml:space="preserve">
<g>
	<defs>
		<rect id="SVGID_1_" width="2123.61" height="2272.15"/>
	</defs>
	<clipPath id="SVGID_2_">
		<use xlink:href="#SVGID_1_"  overflow="visible"/>
	</clipPath>
	<g clip-path="url(#SVGID_2_)">
		<defs>
			<rect id="SVGID_3_" y="0" width="2123.61" height="2272.15"/>
		</defs>
		<clipPath id="SVGID_4_">
			<use xlink:href="#SVGID_3_"  overflow="visible"/>
		</clipPath>
		<path clip-path="url(#SVGID_4_)" fill="#DADADA" d="M853.93,654.16c37.85,61.87,1.89,164.62-87.9,100.5
			c-38.2-30.13-42.58-98.33-4.68-153.89c-58.79,16.1-90.73,44.5-90.75,87.55c27.34,0.69,39.02,15.21,39.43,41.55
			c7.74,1.33,13.68,9.1,17.99,21.56c53.3,50.4,113.2,79.69,162.02,80.1c-0.72-34.93,3.85-72.63,25.7-109.33
			c-23.85-75.54,18.59-103.68,76.08-121.05c-13.87-9.51-39.84-17.24-56.64-33.09c-35-35.64,13.45-35.47,73.06-49.56
			c13.71-20.59,23.31-50.33,21.88-72.87C909.13,514.79,807.25,584.06,853.93,654.16 M1485.34,865.98
			c10.46,54.24-9.2,114.94-51.49,130.95c-118.58,37.26-139.06-108.26-86.47-150.02c70.07-63.17,110.96-82.6,81.06-136.32
			c-24.43,16.46-60.22,31.43-108.48,40.68c2.19,5.73,4.14,12.3,5.54,20.28c6.39,30.56-38.27,75.56-99.53,123.29
			c9.51,28.74,73.23,40.3,65.15,93.21c8.33,37.34,54.87,25.68,74.66,77.62c-3.21,15.04-1.31,29.04,4.62,42.21
			C1581.96,1085.18,1568.33,939.46,1485.34,865.98"/>
		<path clip-path="url(#SVGID_4_)" fill="#F6F6F6" d="M1074.42,477.98c-0.67,8.89-4.28,18.27-9.48,25.34
			c10.29-3.55,18.24-7.03,24.32-10.5C1084.33,486.36,1079.32,481.42,1074.42,477.98 M1207.56,528.06
			c-3.03-7.16-6.46-13.01-10.11-17.61c-4.92,16.87-28.22,42.73-41.35,49.22c10.69,9.59,33.28,10.34,59.81,8.56
			C1215.92,548.17,1214.56,538.65,1207.56,528.06"/>
		<path clip-path="url(#SVGID_4_)" fill="#7472CE" d="M1038.38,422.12c22.17-15.75,52.51-25.69,73.32-20.68
			c2.87,0.69,5.83,0.04,8.21-1.57c1.54-1.85,3.24-3.74,5.09-5.67l6.64-8.65c5.17-6.74,8.36-14.73,9.34-23.1
			c-27.08,1.46-55.18,7.41-83.51,18.46C1040.91,399.08,1034.18,414.2,1038.38,422.12 M1285.92,426.03
			c-17.52-19.03-42.53-35.68-70.84-33.86c-20.85,1.04-32.44,26.98-12.5,39.59c33.96,21.16,68.24,34.64,87.51,70.84
			C1301.29,486.81,1298.16,434.37,1285.92,426.03"/>
		<path clip-path="url(#SVGID_4_)" fill="#EDEDED" d="M772.5,931.76c-9.13,136.78,230.91,106.99,371-1.86
			c72.41-54.87,164.34-111.43,162.56-158.35c-4.86-34.03-19.01-28.63-15.97-88.9c0-30.62,16.9-69.62,82.43-96.71
			c1.18-20.43-0.4-40.06-4.41-58.63c-20.02,52.76-56.21,96.48-124.79,122.07c37.35,36.29,32.81,82.86,21.77,122.17
			c-0.69-75.25,4.77-136.43-150.36-165.47c-3.86,11.76-14.71,18.81-20.49,20.76c-23.43,5.8-22.9-21.01-38.89-25.8
			c-36.4-11.02-42.99-8.67-29.86,4.17c-22.46-13.78-17.4-22.23,34.03-10.77c17.54,6.42,18.58,32.47,36.11,23.25
			c10.59-6.73,20.55-11.09,10.42-46.51c7.52,10.2,10.22,19.08,10.08,26.59c58.12,9.38,96,25.47,119.94,45.15
			c59.01-19.25,98.94-67.25,127.85-131.83c-26.83-88.67-110.64-149.31-210.39-149c-3.08,8.51-7.5,16.48-13.11,23.6l-20.36,25.83
			c-19.09,52.21,41.19,93.78-100.13,116.26c-56.41,9.19-95.82,15.28-69.45,40.28c18.59,11.04,51.34,23.28,54.15,37.95l0,0l0,0
			c0.65,3.42-0.31,6.96-3.46,10.66c0.56-3.54-0.44-6.62-2.58-9.44c-55.09,12.11-101.86,49.41-71.04,117.78
			c-37.35,72.03,12.5,229.54-46.97,258.36C847.51,996.06,810.71,984.27,772.5,931.76 M1208.31,378.63
			c30.21-5.47,60.77,21.54,91.15,42.19c20.06,26.5,10.18,77.09-2.08,106.22c-41.15-55.17-68.21-60.35-107.82-90.05
			C1176.66,411.33,1181.33,391.37,1208.31,378.63 M1235.92,561c-16.62-57.93-40.3-92.69-81.89-68.62
			C1192.27,460.73,1227.33,497.59,1235.92,561 M1141.43,536.71c9.36-63.78,53.96-56.34,74.49-14.52c7.5,11.67,10.38,36.67,7.5,51.28
			C1171.85,581.26,1139.41,570.88,1141.43,536.71 M944.1,706L944.1,706c1.46-35.31,20.52-74.73,89.12-75.23
			c-0.12-2.41-0.05-4.86,0.23-7.32c23.28,74.49,86.57,61.43,149.47,25c67.32,53.91,57.16,148.19-26.18,194.29
			c72.8-58.09,83.98-116.18,28.87-175c-9.98,110.02-98.98,152.86-111.12,57.12l0.64-0.46c-11.05,2.1-21.98,3.15-32.4,3.07
			c-89.35,66.93-82,128.93-69.59,204.51c-23.99-71.35-33.24-141.68,59.94-204.93c-15-1.18-28.57-4.93-39.37-11.53
			c-18.33,34.99-38.21,34.71-46.9,3.53c-0.45,3.49-0.87,7.07-1.21,10.82c-1.21-7.34-1.85-15.49-1.5-23.87
			C944.1,706.01,944.1,706,944.1,706"/>
		<path clip-path="url(#SVGID_4_)" fill="#FFE0BB" d="M333.55,594.28c8.43-11.98,18-22.63,28.25-31.85
			c-95.62,4.31-158.39,15.9-184.83,43.4c9.67-2.45,20.23-4.62,31.83-6.43C269.97,590.01,313.54,587.52,333.55,594.28 M525.3,669.24
			c-3.85,4.24-8.3,7.83-13.35,10.59c27.46-36.73,20.1-88.23-10.22-141.03c2.63,1.9,5.1,3.92,7.47,6
			c2.94-25.76,17.46-63.88,36.77-81.63c19.67-20.26,37.26-39.77-3.29-34.75c-61.4,9.84-24.26,51.86-68.64,89.21
			c2.7,1.22,4.95,2.81,6.57,4.81c-81.76,17.37-117.18,48.76-163.51,100.15c2.22-4.73,4.61-9.31,7.15-13.74
			c-30.84-2.65-66.71-2.26-114.83,5.57c-139.97,13.97-119.26,100.15-53.1,74.94c214.61-70.51,207.8,43.6,280.7,30.62l141.47,95.68
			c22.11-17.83,35.76-41.04,42.82-59.53l-96.02-86.86L525.3,669.24z M480.6,692.77c-4.77-73.24-27.93-77.1-156.7-54.5
			C446.88,590.58,501.72,622.94,480.6,692.77 M394.48,538.9c-80.04,0.9-161.98,8.46-187.98,36.43
			c36.6-13.98,94.32-20.78,168.36-23.6C381.27,546.94,387.83,542.64,394.48,538.9 M1097.59,487.17c1.76-1.45,3.25-2.91,4.5-4.37
			c-19.01-25.21-39.95-34.92-64.18-17.97c-0.97,4.14-2.05,8.34-3.21,12.53C1047.72,455.46,1076.64,461.43,1097.59,487.17
			 M1104.71,479.19c10.66-17.8-8.64-37.32,6.25-66.07c-20.75-4.74-37.3-2.04-68.62,17.52c0.43,8.68-1.26,20.21-4.03,32.43
			C1060.33,442.93,1085.41,451.96,1104.71,479.19 M1028.42,497.91c-2.09,6.28-4.2,12.16-6.17,17.32c1.96-0.46,3.88-0.92,5.75-1.38
			C1027.73,508,1027.88,502.69,1028.42,497.91 M1575.56,1340.52c23.78,6.7,51.26-8.31,61.38-44.28
			c10.12-35.97-0.94-70.54-24.71-77.24c-23.75-6.7-51.24,17.04-61.36,53.01C1540.72,1307.95,1551.78,1333.82,1575.56,1340.52
			 M968.83,659.19c-8.89,10.2-15.27,24.47-19.33,43.79c0.08,41.82,28.19,41.29,35.54,6.06
			C972.86,697.93,966.38,681.53,968.83,659.19 M1588.09,1358.28c-5.74,0.46-11.49-0.07-17.07-1.64c-9.38-2.64-17.17-7.9-23.05-15.27
			c-22.17,11.51-43.96,41.52-32.34,59.25c12.41,15.66,49.12,41.03,80.35,54.3c35.54,15.77,70.21-14.58,65.84-42.24
			C1644.87,1403.54,1623.06,1383.99,1588.09,1358.28 M1535.8,1293.55c-10.13-1.33-22.33,4.69-42.56,24.24
			c1.1-5.94,4.12-11.73,8.14-16.89c-12.63-8.38-55.87-37.06-69.6-46.21c-13.12,10.43-27.54,27.08-42.37,50.94
			c-4.89,9.86-8.93,19.79-12.21,29.77l79.03,39.57v0c3.98-17.42,14.59-34,26.56-38.43c-13.3,26.31-10.49,41.82-3.31,52.37
			l56.22-83.14C1535.46,1301.86,1535.5,1297.78,1535.8,1293.55 M1506.93,1411.01c-32.62,16.91-33.5,46.74,5.41,72.43
			c51.19,30.07,76.8,9.47,81.04-11.81c-0.91-0.39-1.83-0.78-2.74-1.22C1556.44,1452.26,1522.44,1429.79,1506.93,1411.01
			 M1456.08,652.1c-14.24-47.57-38.89-70.15-68.79-60.86l-8.22,3.08c-34.81,14.41-67.2,45.75-77.18,82.79
			c-5.57,32.08,3.06,43.75,11.82,60.53C1386.26,735.12,1465.93,679.34,1456.08,652.1 M1421.31,665.91
			c5.56-41.69-28.29-49.94-68.35-22.98c25.9-6.26,46.83,5.32,49.87,22.44c-15.16-14.69-22.76-26.01-56.79-11.98
			c28.81-1.46,48.09,15.56,46.84,33.74c-11.86-19.05-16.36-32.34-59.5-24.11c-13.68,24.83,0.49,52.61,38.33,44.87
			c-49.87,19.11-69.81-30.78-33.22-65.08C1388.6,602.07,1442.25,616.68,1421.31,665.91 M1082.62,722.82
			c5.6,80.47,81.67,61.1,94.38-53.8C1154.17,695.73,1118.26,714.57,1082.62,722.82 M1651.42,1280.07
			c-0.76,6.29-2.01,12.71-3.83,19.17c-7.76,27.56-23.69,46.05-41.7,54.29c36.32,25.13,64.91,66.6,91.54,38.75
			C1724.75,1351.67,1702.48,1305.69,1651.42,1280.07 M1363.91,511.09c-26.83-88.67-110.64-149.31-210.39-149
			c-3.08,8.5-7.5,16.48-13.11,23.6l-20.36,25.83c-19.09,52.2,41.19,93.78-100.13,116.25c-56.4,9.19-95.82,15.28-69.45,40.28
			c18.59,11.04,51.34,23.28,54.15,37.95l0,0h0c-5.82,17.29,39.95,17.39,72.53,17.66c-7.86-6.62-11.21-19.45-21.81-22.63
			c-36.4-11.02-42.99-8.67-29.86,4.17c-22.46-13.78-17.4-22.23,34.03-10.77c17.54,6.42,18.58,32.47,36.11,23.25
			c10.6-6.73,20.56-11.09,10.42-46.51c7.52,10.2,10.22,19.08,10.08,26.59c58.12,9.38,96,25.47,119.94,45.15
			C1295.07,623.68,1335,575.68,1363.91,511.09 M1223.42,573.46c-51.57,7.79-84.01-2.58-81.99-36.75
			c9.36-63.78,53.96-56.34,74.49-14.52C1223.42,533.86,1226.29,558.86,1223.42,573.46 M1154.02,492.37
			c38.24-31.65,73.3,5.22,81.89,68.62C1219.3,503.07,1195.62,468.31,1154.02,492.37 M1189.56,436.99
			c-12.9-25.66-8.23-45.62,18.75-58.36c30.21-5.47,60.77,21.54,91.16,42.19c20.05,26.5,10.18,77.09-2.08,106.22
			C1256.23,471.87,1229.17,466.69,1189.56,436.99 M973.52,662.45c-0.31,74.99,121.76,86.4,204.36-2.59l0.01-0.02
			C1088.24,717.43,1001.12,708.36,973.52,662.45 M1095.13,684.43c-31.44-3.16-56.07-22.86-61.04-46.96
			c-23.86-0.68-42.57,3.06-56.61,13.64C993.5,684.13,1041.23,695.2,1095.13,684.43"/>
		<path clip-path="url(#SVGID_4_)" fill="#9DE1FC" d="M1914.16,782.61c-55.61,0-100.7,45.09-100.7,100.72
			c0,55.63,45.09,100.72,100.7,100.72c55.63,0,100.72-45.09,100.72-100.72C2014.88,827.7,1969.79,782.61,1914.16,782.61"/>
		<path clip-path="url(#SVGID_4_)" fill="#C7F8FF" d="M1921.01,797.25c-45.23,0-81.9,36.67-81.9,81.91
			c0,45.24,36.67,81.91,81.9,81.91c45.24,0,81.91-36.67,81.91-81.91S1966.25,797.25,1921.01,797.25"/>
		<path clip-path="url(#SVGID_4_)" fill="#FFFFFF" d="M1872.92,817.37c-27.21,0-49.28,22.06-49.28,49.29
			c0,27.22,22.06,49.29,49.28,49.29c27.22,0,49.29-22.07,49.29-49.29C1922.21,839.44,1900.14,817.37,1872.92,817.37"/>
		<path clip-path="url(#SVGID_4_)" fill="#FFFFFF" d="M1959.37,896.9c-18.22,0-33,14.78-33,33.01c0,18.23,14.77,33.01,33,33.01
			c18.23,0,33.01-14.78,33.01-33.01S1977.6,896.9,1959.37,896.9"/>
		<path clip-path="url(#SVGID_4_)" fill="#9D9D9C" d="M1672,1159.95l-37.09,54.19c9.65,10.23,15.63,25.83,17.02,43.89l50.69-74.8
			c-6.69-3.48-13.48-7.74-20.28-12.85C1678.57,1166.84,1675.13,1163.36,1672,1159.95 M1700.03,1127.67
			c-14.72-19.59-19.8-41.22-16.91-63.48c-22.83,14.24-38.58,47.77,12.23,92.13c37.26,25.23,69.56,23.88,75.64,4.78
			C1749.72,1162.84,1724.92,1153.43,1700.03,1127.67 M1757.33,1069.33c-13.13-29.47-20.83-53.02-24.19-72.19
			c-32.65,33.59-55.58,82.54-23.21,123.24c34.88,36.22,72.08,35.09,88.46,10.02C1785.39,1118.59,1771.52,1099.08,1757.33,1069.33
			 M1472.7,1451.11l-397.22,580.31c-33.79,56.22-1.93,73.05,39.59,18.75l381.36-562.7
			C1482.92,1476.16,1475.27,1463.56,1472.7,1451.11 M1828.04,1012.91c-35.46-21.96-54.97-50.68-61.83-76.84
			c-28.09,16.74-27.1,66.13,1.02,125.97c43.89,97,88.7,87.89,93.76,28.13C1841.7,1087.98,1824.84,1051.77,1828.04,1012.91
			 M1914.16,1003.55c-65.51,0-118.76-52.42-120.16-117.62c-26.2,14.86-39.77,62.72,42.13,117.24
			c105.62,57.22,152.2,0.81,157.32-29.52C1972.29,992.25,1944.55,1003.55,1914.16,1003.55 M1839.66,1018.39
			c-2.72,24.86,4.8,48.65,19.8,60.11c34.81-3.65,67.14-24.01,70.08-40.41C1905.63,1039.07,1875.9,1033.63,1839.66,1018.39"/>
		<path clip-path="url(#SVGID_4_)" fill="#A4A4FF" d="M1815.15,372.65c-11.69-59.14-40.35-115.68-68.31-157.32
			c-51.83-77.2-106.16-106.32-35.66-18.44c26.9,42.86,35.39,100.16,16.53,158.77c25.89,7.1,41.13,22.74,42.29,41.33
			c-10.61-12.57-24.25-23.19-47.08-27.89c-16.5-4.42-32.29-1.42-47.35,9.11c24.56,37.83,25.29,56.62,6.22,106.5
			c9.03-54.17-1.74-79.17-17.59-97.02c-144.63-179.49-249.81-204.73-447.95-103.16c39.71-0.15,70.83,1.37,91.93,4.82
			c-30.73,0.95-74.71,5.12-125.52,10.96v0c-52.85,15.58-136.75,9.37-120.25,63.9c179.23-61,350.63,68,327.08,215.44
			c9.53-2.3,18.51-2.64,26.79-1.02l26.59-216.16l-7.41,224.3c15.63,10.82,27.25,31.2,33.31,60.86c48.7-9.13,47.26-79.78,62.6-104.4
			c37.91-60.86,34.27-107.84,13.59-207.85c34.44,87.04,43.48,135.9,5.88,207.38c47.12-26.35,64.34-50.02,92.05-100.42
			c-12.83,38.53-21.96,70.46-70.43,104.97C1747.11,553.47,1834.48,483.22,1815.15,372.65 M1410.94,1202.16
			c-103.48,47.57-131.85,136.82-113.9,231.97c-33.34-88.55-5.9-195.51,111.12-243.08c8.54-3.14,17.01-4.9,25.28-5.53
			c-51.16-26.14-84.35-62.17-86.84-115.09c-146.63,40.2-176.88,148.65-101.65,308.14c19.78,94.08,45.23,175.4,78.43,241.2
			l47.96-70.93c-24.44-82.87-35.69-168.57,11.13-252.92c65.78-102.96,116.72-64.3,121.97-19.47
			C1537.35,1247.82,1485.23,1172.76,1410.94,1202.16 M820.94,963.31c16.24,11.57,33.55,15.96,53.13,8.96
			c28.32-17.31,23.02-54.24,18.66-99.9C865.83,895.31,841.81,925.38,820.94,963.31 M1237.46,1394.27l-207.55,435.75l198.51-454.92
			c-2.2-4.7-4.31-9.43-6.35-14.18l-301.83,321.6l294.54-339.64c-43.5-114.9-33.97-237.7,121.83-283.79
			c-2.72-23.83-55.15-20.32-70.62-60.75c-93.32-17.12-302.37,157.18-381.95,319.46c67.82-193.25,282.75-357.35,385.76-337.42
			c0.51-27.17-49.02-41.14-61.9-71.72c-18.63,13.99-38.38,28.11-58.41,42.09c-153.53,91.23-290.72,112.56-354.32,67.42
			c-30.58,76.54-51.57,176.84-61.4,304.84c-5.09,31.23-7.62,61.39-9.24,90.43c22.18,311.83,86.17,536.61,210.85,635.37
			c29.56,2.91,62.6,2.65,99.63-0.78c0.87-2.08,1.84-4.15,2.95-6.19l274.45-405.88C1276.73,1570.15,1249.56,1488.48,1237.46,1394.27
			 M565.88,1756.74c54.56,9.21,129.43,53.74,156.25,124.62c35.6,89.78,88.86,144,179.19,162.39
			c-103.51-106.52-157.36-292.18-181.89-526.54C712.18,1613.95,688.92,1694.6,565.88,1756.74 M532.78,1414.31
			c71.85-46.56,152.9-114.31,190.91-204.63c11.75-92.94,28.54-162.4,48.95-214.89c-15.5-23.97-19.57-57.16-9.16-99.44
			c11.44,17.12,22.67,33.07,34.18,46.2c27.41-48.19,59.21-75.83,93.07-93.88c-0.01-0.11-0.01-0.21-0.02-0.32
			c-58.14,8.54-116.07-31.84-156.99-71.19c11.7,79-9.56,238.02-48.89,311.4c32.37-142.19,53.86-275.11,22.8-331.54
			c-7.17,40.84-29.51,98.78-58.75,170.07c-34.72,84.65-37.49,127.1-26.56,325.04c-34.38-188.04-27.92-247.42,5.3-326.27
			c69.95-166,90.87-246.09-6.24-212.83c28.89-4.8,55.48,31.69-37.49,123.15c-151.18,209.25-3.85,148.74-43.18,521.87
			C537.9,1380.8,535.26,1399.68,532.78,1414.31 M1407.78,1758.76c-13.09-11.38-25.87-24.33-38.21-38.75l-216.01,313.48
			c83.93-54.41,182.91-196.84,330.2-203.22C1443.41,1811.34,1421.88,1787.21,1407.78,1758.76 M1451.8,1600.66
			c24.54,145.67,47.2,246.79-33.92,86.96c-2.68-8.44-5.51-16.94-8.43-25.5l-30.38,44.1c29.78,35.66,64.08,62.61,103.72,79.74
			c71.44,38.84-14.65-70.12-27.03-191.03L1451.8,1600.66z"/>
		<path clip-path="url(#SVGID_4_)" fill="#BD8FFF" d="M720.48,1922.61c-29.19,33.25-52.69,16.3-64.49,33.1
			c24.98,13.9,33.2,39.33,41.67,64.59c-13.84-21.42-26.04-48.27-51.39-57.66c-13.65-22.97-25.76-50.14-35.32-84.33
			c-2.14,80.35,10.67,144.14,44.37,188.91c58.65,0.67,58.28-25.41,148.88-41.94C769.89,2003.57,741.96,1971.36,720.48,1922.61
			 M1392.76,1930.26c-9.71,9.88-9.75,38.03-0.57,73.22c9.14,29.52-49.04,8.91-55.4,85.58c-3.99-46.42,14.58-60.14,29.48-68.19
			c-9.59-1.33-18.75-3.94-25.93-12.38c-24.2-35.42-49.53-40.69-106.5,18.06c30.66-54.44,77.37-72.18,101.1-48.07l-8.87-72.36
			c-56.62,39.68-88.71,90.13-128.17,124.07c-14.17,42.29-13.04,63.16,39.06,65.82c80.38,10.2,87.76,44.82,134.88,36.92
			C1417.22,2070.73,1428.83,2000.55,1392.76,1930.26"/>
		<path clip-path="url(#SVGID_4_)" fill="#A373FF" d="M602.13,1870.22c-57.48,61.65-108.63,168.22,14.97,193.84
			c6.92,0.94,13.25,1.65,19.1,2.16C607.28,2022.63,598.04,1956.24,602.13,1870.22 M1407.31,1935.03
			c28.41,71.92,30.5,130.06-19.9,194.15c20.48-6.24,47.72-19,87.16-41.51C1522.51,2054.46,1475.65,1945.41,1407.31,1935.03"/>
		<path clip-path="url(#SVGID_4_)" fill="#7575E0" d="M1462.9,1413.41L1462.9,1413.41c-5.72-6-8.21-14.48-8.34-23.65l-83.09-33.73
			c-13.01,57.09-3.59,115.8,11.95,174.9L1462.9,1413.41z M1449.85,1243.81l41.01,26
			C1486.37,1246.03,1470.95,1235.46,1449.85,1243.81 M1518.24,1845.98c-79.42,4.33-134.96,24.18-177.34,50.35l11.76,108.41
			c9.57,6.71,18.68,5.4,30.41,3.68c0.65-2.05,0.53-4.49-0.6-7.56c-8.51-27.21-10.07-72.23,3.47-83
			c53.59,4.29,86.71,34.35,104.88,69.68C1528.02,1959.32,1563.65,1843.11,1518.24,1845.98 M546.52,1765.98
			c-0.09,0.04-0.17,0.08-0.26,0.12l-0.33-0.13c-3.32-0.06-6.64-0.04-9.98,0.13c-56.23,39.02-27.05,120.42,17.16,149.94
			c14.89-25.11,35.5-48.29,58.43-65.2c10.08,37.31,22.06,67.39,35.74,91c12.62-13.5,44.71-5.53,64.36-41.25
			c-1.65-4.5-3.25-9.1-4.81-13.84C670.94,1811.61,611.16,1767.38,546.52,1765.98 M521.26,1376.48
			c32.32-408.68-95.01-337.75,42.76-545.14l-38.27-28.42c-115.9,108.46-84.18,290.68-42.54,364.86
			C512.92,1239.14,507.71,1481.87,521.26,1376.48 M1417.95,1649.8c2.41,8.68,4.73,17.36,6.88,26.02
			c54.48,128.29,49.31,64.88,14.36-56.85L1417.95,1649.8z"/>
		<g opacity="0.2" clip-path="url(#SVGID_4_)">
			<g>
				<defs>
					<rect id="SVGID_5_" x="445.18" y="327.91" width="1496.4" height="1730.63"/>
				</defs>
				<clipPath id="SVGID_6_">
					<use xlink:href="#SVGID_5_"  overflow="visible"/>
				</clipPath>
				<path clip-path="url(#SVGID_6_)" fill="#512782" d="M890.05,831.54l25.7-109.33c-10.04-88.88,30.91-109.29,82.84-114.96
					c-0.61-2.23-3-4.7-6.51-7.39c4.07,2.04,8.26,4.1,12.54,6.17c-8.83,12.07,18.35,17.39,72.53,17.66
					c31.13,2.75,46.77-22.37,28.89-52.49c8.68,34.9-133.07,10.18-168.77-21.18c-0.66,0.73-1.15,1.48-1.55,2.24
					c-1.08-1.81-1.83-3.54-2.22-5.17c0.09,2.35,0.61,4.64,1.51,6.89c-1.57,5.59,2.94,12,11.6,18.98l-88.04,111.45
					c16.33,89.09-60.21,118.6-113.56,26.12c-23.48,5.24-41.54,9.04-42.64,8.65C726.1,773.42,812.82,848.71,890.05,831.54
					 M613.46,1185.38c-0.24,0.59-0.49,1.17-0.73,1.76c-25.96,12.42-51.23,20.99-72.57,25.43c0,0-9.59,216.11-11.61,220.86
					c0,0,165.91-125.61,195.99-182.31c0.94-1.77,14.53-64.71,24.81-112.72l15.88-53.83c144.75,4.82,303.6-48.4,474.85-152.57
					l-25-39.24c-121.19,88.39-303.77,171.5-337.54,134.83c-40.11,0-82.36-9.42-90.09-40.44l-2.6,4.88
					c-21.3-18.28-27.71-41.9-12.61-73.23l35.5,36.46l82.98-107.59l-48.6-13.63c-72.24,62.71-137.93,154.65-196.49,278.4
					c-8.42-54.61-4.43-130.98,13.14-231.14C604.15,947.53,604.72,1045.27,613.46,1185.38 M1449.85,1188.61l-18.88-13.91
					c-153.72,35.54-185.68,118.78-133.94,259.42C1265.91,1275.78,1343.12,1209,1449.85,1188.61 M1186.81,1657.69
					c14.47,40.56,32.49,77.94,53.22,110.58c0.48-0.75,66.84-102.36,87.05-121.96c-35.37-70.15-62.98-158.92-87.38-261.72
					c-38.28-83.94-41.69-119.82-43.44-191.36c-50.98,115.72-58.32,245.12-37.01,361.28c-35.39,70.59-129.34,275.52-129.34,275.52
					L1186.81,1657.69z M933.5,547.08c-0.09-2.37,0.27-4.79,1.16-7.26C933.24,541.96,932.87,544.39,933.5,547.08 M934.69,539.73
					c-0.01,0.03-0.02,0.06-0.03,0.09c0.02-0.03,0.04-0.06,0.07-0.1L934.69,539.73z M1030.14,445.64l-19.24,6.84l-40.19,76.88
					c-20.77,1.11-32.12,4.73-35.97,10.35l81.02-16.11C1030.9,473.98,1038.36,441.9,1030.14,445.64 M1293.08,1008.84l-4.04,7.88
					l62.51,42.74l21.28,60.31c108.88-17.79,164.88-57.12,168.87-117.64c-68.82,73.36-187.3,36.41-227.5-20.2
					c9.68-60.48-31.04-98.13,75.9-252.74l-79.18,18.75c30.67,30.02-17.06,82.89-95.84,144.81l40.63,39.24L1293.08,1008.84z
					 M1499.02,1830.8l-91.24-72.04c-17.52-16.12-33.57-35.22-48.38-57.01c-29.61,37.72-52.65,80.11-78.87,120.26
					c20.51,22.8,42.65,41.4,65.89,54.74c25.28-10.14,46.72-19.47,65.9-26.67c-93.55,36.39-170.55,109.33-236.52,196.6
					c60.66-44.94,114.22-82.38,161.5-108.03c2.48,51.42,7.27,94.34,45.77,69.77c-2.57-31.95-2.49-61.44,4.35-84.65
					c37.59-0.17,52.83,17.54,83.89,35.09c-3.66-21.89-13.26-43.72-23.63-57.56c34.85-1.57,64.76,10.72,90.41,40.54
					C1553.07,1872.47,1562.21,1835.57,1499.02,1830.8 M521.78,930.01c32.82-84.29,165.51-220.28,90.94-186.24
					c-12.87,36.01-33.36,54.1-57.09,64.59l-29.89-5.44l-61.79,70.98c-53.65,153.69,19.79,118.34,68.76,442.86
					C555.64,1113.6,471.25,1016.2,521.78,930.01 M1815.15,372.65c-12.15,79.83-166.15,131.04-201.06,124.91
					c-10.08-3.77-20.03-7.71-29.93-11.7c16.11-58.93-3.45-107.13-39.18-150.47c19.44,58.96,28.02,93.27,22.25,143.64
					c-55.72-22.47-110.99-43.53-178.36-37.5l0.17-0.03c-63.06-87.31-155.48-142.36-338.56-97.77l6.98,37.18
					c128.55-58.02,220.35-6.03,294.78,66.41c9.88,40.5,25.96,109.95,20.27,138.63c52.26-9,71.41,0.17,94.28,73.9
					c47.97-8.79,52.13-56.36,72.51-106.26C1786.91,568.78,1844.49,491.8,1815.15,372.65 M1820.34,1004.3l-0.47,1.88l-26.81-22.12
					c-19.6,28.4-17.93,71.54-3.57,123.45c-20.72-31.39-44.9-81.3-54.9-120.14l-15.29,12.56c1.36,80.04,48.06,126.15,79.07,143.63
					l9.58-11.58c27.26,17.64,49.91,4.83,68.07-37.82c-22.8-10.58-37.7-30.92-44.65-61.08c31.27,13.13,99.49,27.21,103.65,15.36
					l6.55-20.65C1903.6,1036.69,1862.82,1026.37,1820.34,1004.3 M1688.18,1054.54l-19.42,18.27c7.12,59.46,44.21,90.74,105.04,99.69
					l7.23-18.02C1717.18,1154.69,1687.57,1120.02,1688.18,1054.54 M724.54,1413.43c4.08,241.11,51.57,461.21,189.82,637.37
					c55.11,12.38,99.67,9.1,137.51-4.14C907.72,1962.38,804.43,1730.24,724.54,1413.43 M636.2,1792.12
					c-74.96-42.02-132.83-50.05-141.28,40.35c177.38-22,173.56,140.3,309.28,192.8C715.23,1937.82,733.6,1852.32,636.2,1792.12
					 M1177.88,659.84l-4.04,59.33c8.83,40.23,4.04,85.72-17.1,123.57C1252.58,777.72,1232.5,700.72,1177.88,659.84 M1033.08,727.06
					l-39.37-11.53c-49.71,47.34-82.14,115.4-20.58,216.45C951.19,850.22,957,777.36,1033.08,727.06 M1106.74,683.35l-34.16-10.38
					c-33.86,10.25-81.08-10.07-88.44-30.05c0,0-13.87,9.19-13.43,10.74C1001.78,699.43,1055.04,702.49,1106.74,683.35
					 M1371.7,707.89c12.13-4.09,43.53-27.4,49.61-41.98c12.93-40.51-25.79-60.54-74.96-22.98
					C1311.4,675.81,1321.47,722.16,1371.7,707.89"/>
			</g>
		</g>
		<g opacity="0.22" clip-path="url(#SVGID_4_)">
			<g>
				<defs>
					<rect id="SVGID_7_" x="504.31" y="152.65" width="1498.61" height="1832.92"/>
				</defs>
				<clipPath id="SVGID_8_">
					<use xlink:href="#SVGID_7_"  overflow="visible"/>
				</clipPath>
				<path clip-path="url(#SVGID_8_)" fill="#F6F6F6" d="M1269.81,980.38c-162,33.22-290.59,145.69-385.76,337.42
					c122.41-144.78,260.06-239.71,407.89-290.21L1269.81,980.38z M765.23,1084.56c-25.83,121.04-41.21,232.36-40.69,328.87
					c38.21,167.82,91.02,306.57,154.4,432.49C820.1,1615.64,757.49,1389.59,765.23,1084.56 M939.84,555.05
					c30.62-15.28,158.01-12.85,187.24-39.81c13.9-20.13,3.87-39.28-10.86-66.69c1.14,27.06-9.49,50.68-77.51,72.36
					C932.99,534.19,915.82,545.09,939.84,555.05 M1410.48,1164.07c-35.5-16.72-51.66-53.18-63.88-93.65
					c-168,41.06-175.9,155.72-101.65,308.14C1173.66,1203.02,1298.3,1115.01,1410.48,1164.07 M719.42,1517.2
					c-13.69,84.17-63.3,164.95-171.08,240.22c176.2,53.13,122.93,84.38,228.15,228.15C724.54,1776.18,702.38,1708.98,719.42,1517.2
					 M612.72,719.17c46.57,11.68,7.29,73.04-68.55,165.24c-71.91,121.32-29.56,116.24-4.02,303.16
					c4.02-303.16,122.78-278.92,139.45-482.96C640.91,692.04,619.51,697.84,612.72,719.17 M1466.8,659.84
					c-7.35-47.72-26.25-78.94-69.41-75.46c-65.89,16.15-120.12,64.57-91.39,138.31C1282.02,663.41,1408.59,547.08,1466.8,659.84
					 M1674.56,152.65c49.99,67.17,70.04,131.49,52.57,192.25l-59.33,33.01l20.28,41.34c23.39-23.98,50.56-31.98,81.93-22.26
					C1767.02,249.79,1725.32,190.88,1674.56,152.65 M1198.43,289.36h109.77c117.03-61.23,237.87,8.06,341.85,81.11
					C1535.52,209.47,1374.5,173.06,1198.43,289.36 M1803.31,879.16l-22.29,10.06c19.4,146.36,148.53,148.87,221.9,94.82v-21.14
					C1906.31,1018.39,1816.75,989.93,1803.31,879.16 M1719.31,1013.15l-31.13,41.39c5.83,72.89,31.49,98.08,68.09,96.94
					C1716.24,1118.44,1707.08,1070.84,1719.31,1013.15 M1365.35,1568.86l18.49-22.92c-14.59-43.1-23.87-96.41-24-167.38
					c43.87-142.11,103.06-190.5,144.59-102.12c14.72,2.49,18.39-10.65,13.81-35.47C1420.31,1133.73,1257.27,1317.79,1365.35,1568.86
					"/>
			</g>
		</g>
		<path clip-path="url(#SVGID_4_)" fill="#3F1D93" d="M1338.48,642.81c-36.58,34.29-16.65,84.19,33.22,65.08
			c-37.83,7.74-52.01-20.04-38.33-44.87c43.14-8.23,47.63,5.06,59.5,24.11c1.25-18.18-18.03-35.2-46.84-33.74
			c34.03-14.03,41.63-2.71,56.79,11.98c-3.04-17.12-23.96-28.7-49.87-22.44c40.07-26.97,73.92-18.71,68.35,22.98
			C1442.24,616.68,1388.6,602.07,1338.48,642.81 M323.9,638.27c128.77-22.59,151.93-18.74,156.7,54.5
			C501.72,622.94,446.88,590.58,323.9,638.27 M2034.38,883.33c0-66.4-53.82-120.22-120.22-120.22
			c-61.1,0-111.55,45.61-119.18,104.66c-20.82,4.45-32.6,24.64-31.56,50.03c-19.69,13.08-32.68,29.73-32.26,59.39l-0.02-0.04
			c-20.39,21.15-35.17,43.42-42.83,65.51l-0.01-0.02c-33.5,25.25-54.06,53.39-35.67,90.23l-46.4,68.62
			c-26.83,0.2-54.86,27.89-66.01,67.51c-1.3,4.62-2.32,9.13-3.07,13.51c-4.44-2.43-12.04-0.48-19.71,4.15l-4.19-2.66
			c36.06-26.1,2.41-82.67-50.33-95.92c-35.25-19.31-64.76-39.79-82.07-62.78c253.24-40.64,194.05-207.29,90.9-289.78
			c0.41,37.94,4.86,122.34-40.3,148.38c-79.89,32.05-127.79-87.67-69.9-130.73c102.12-84.27,107.89-84.09,88.42-160.19
			c6.37-6.49,11.17-12.96,14.42-19.2c45.54-1.13,60.31-67.87,74.28-105.54c2.15-1.18,4.26-2.35,6.31-3.51
			c169.46,11.86,314.06-50.64,286.86-194.92c-14.58-70.52-48.39-123.09-73.2-162.27c-72.79-114.98-140.68-105.82-62.12-1.83
			c31.48,41.49,32.39,98.25,14.68,146.78c-19.12-4.89-33.61-0.26-43.06,14.68c-133.57-146.29-211.36-226.04-488.88-82.07
			c-37.09,17.04-176.98,3.55-130.56,90.75c-15.37,12.19-32.25,41.45-25.44,56.59c-121.04,55.45-230.76,154.13-183.89,222.8
			c32.29,47.69,11.81,148.46-67.54,87.16c-32.11-30.12-39.52-82.32,9.2-156.27c-53.35,12.32-124.66,42.03-123.49,102.81
			c-16.29,1.74-36.77,7.11-62.06,16.4l-61.25-49.08c13.45-26.15,11.25-64.52-9.62-94.27c0.69-30.29,16.43-76.52,40.62-99.48
			c17.37-17.83,38.59-53.9-18.51-49.05c-87.52,9.61-36.55,58.79-85.79,101.33c-13.9-0.74-31.16,3.85-42.48,13.04l0.06,0
			c-0.02,0.01-0.04,0.02-0.07,0.02l0.01-0.02c-138.52-7.99-233.17,27.31-228.01,54.86l0.01,0.01
			c-13.16,7.28-21.99,16.08-26.08,26.67c-118.68,36.35-73.6,119.77-12.2,93.68c195.95-68.51,198.68,34.37,281.3,31.34l79.97,59.38
			c-96.17,93.36-111.63,288.22-46.87,385.48c24.05,55.77,35.32,275.96,52.64,276.7l-0.01,0.02c0.01-0.01,0.02-0.01,0.03-0.02
			c0.91,0.03,1.84-0.56,2.79-1.8c89.67-57.78,158.73-125.23,194.96-182.66c-1.46,15.68-2.8,31.9-4,48.75
			c-25.7,182.66,26.39,322.95-187.52,437.55c-50.46,45.56-55.45,94.42,19.35,173.8c-29.57,61.22-22.73,128.36,66.77,142.87
			c118.74,14.53,70.78-17.16,205.69-41.59c55.65,29.76,126.62,36.02,212.7,41.17c0.8,40.38,42.64,68.42,93.47,3.22l8.66-12.56
			c16.38-3.52,30.65-9.79,43.73-18.02c-15.26,50.21,15.77,60.12,53.88,64.96c93.76,11.98,83.86,91.16,271.9-10.41
			c9.65-19.39,10.64-58.16-2.7-95.12c57.12-37.96,71.96-163.15,35.85-172.63c-33.66-7.1-59.05-21.83-79.56-41.05
			c9.18,5.12,18.4,9.53,27.63,13.09c108.41,32.59,17.75-49.93-9.51-236.01l46.9-68.07c55.9,25.18,82.26,6.17,89.55-25.29
			c33.5,4.35,65.44-20.46,67.48-58.03c11.25,1.41,21.26-4.1,33.77-18.54c34.43-42.13,1.43-95.72-35.11-124.07l56.37-81.8
			c31.75,5.78,56.08-8.49,57.67-37.41c8.29-3.67,15.66-9.22,21.83-16.2c33.25,18.09,58.49-13.8,64.3-45.93
			c0.01-0.01,0.03-0.01,0.05-0.02c33.06,0,74.78-36.35,73.84-58.65c50.53-11.3,67-55.27,60.45-80.07
			C2025.44,935.34,2034.38,910.38,2034.38,883.33 M1914.16,782.61c55.63,0,100.72,45.09,100.72,100.72
			c0,55.63-45.09,100.72-100.72,100.72c-55.61,0-100.7-45.09-100.7-100.72C1813.46,827.7,1858.55,782.61,1914.16,782.61
			 M1550.87,1272c10.12-35.97,37.61-59.7,61.36-53.01c23.78,6.7,34.84,41.27,24.71,77.24c-10.12,35.97-37.61,50.98-61.38,44.28
			C1551.78,1333.82,1540.72,1307.95,1550.87,1272 M1535.8,1293.55c-0.3,4.23-0.33,8.31-0.11,12.22l-56.22,83.14
			c-7.18-10.55-9.99-26.06,3.31-52.37c-11.97,4.43-22.59,21.02-26.56,38.43v0l-79.03-39.57c3.29-9.98,7.33-19.91,12.21-29.77
			c14.84-23.86,29.26-40.51,42.37-50.94c13.73,9.15,56.97,37.83,69.6,46.21c-4.02,5.16-7.04,10.94-8.14,16.89
			C1513.46,1298.25,1525.67,1292.22,1535.8,1293.55 M1462.9,1413.41l-79.47,117.52c-15.54-59.1-24.96-117.8-11.95-174.9l83.09,33.73
			C1454.69,1398.93,1457.18,1407.42,1462.9,1413.41L1462.9,1413.41z M1449.85,1243.81c21.1-8.35,36.51,2.22,41.01,26
			L1449.85,1243.81z M1433.44,1185.52c-8.27,0.62-16.75,2.38-25.28,5.53c-117.03,47.58-144.46,154.53-111.12,243.08
			c-17.95-95.15,10.42-184.4,113.9-231.97c74.29-29.4,126.41,45.67,93.5,74.29c-5.25-44.83-56.19-83.5-121.97,19.47
			c-46.81,84.35-35.57,170.05-11.13,252.92l-47.96,70.93c-33.19-65.8-58.64-147.12-78.43-241.2
			c-75.23-159.48-44.98-267.93,101.65-308.14C1349.09,1123.35,1382.29,1159.38,1433.44,1185.52 M1347.39,846.91
			c-52.59,41.75-32.12,187.28,86.47,150.02c42.29-16,61.95-76.71,51.49-130.95c82.98,73.48,96.61,219.2-114.94,241.92
			c-5.93-13.17-7.83-27.17-4.62-42.21c-19.79-51.95-66.33-40.28-74.66-77.62c8.07-52.91-55.64-64.47-65.15-93.21
			c61.26-47.73,105.92-92.74,99.53-123.29c-1.4-7.98-3.35-14.55-5.54-20.28c48.26-9.25,84.05-24.23,108.48-40.68
			C1458.34,764.32,1417.46,783.74,1347.39,846.91 M880.58,983.38c59.47-28.82,9.62-186.33,46.97-258.36
			c-30.83-68.37,15.94-105.67,71.04-117.78c2.14,2.82,3.15,5.9,2.58,9.44c3.15-3.7,4.11-7.24,3.46-10.66h0l0,0
			c-2.82-14.67-35.56-26.92-54.15-37.95c-26.37-25,13.05-31.09,69.45-40.28c141.32-22.48,81.04-64.05,100.13-116.25l20.36-25.83
			c5.61-7.12,10.03-15.1,13.11-23.6c99.76-0.31,183.56,60.33,210.39,149c-28.91,64.59-68.84,112.59-127.85,131.84
			c-23.93-19.68-61.82-35.77-119.94-45.15c0.14-7.51-2.57-16.39-10.08-26.59c10.13,35.42,0.17,39.79-10.42,46.51
			c-17.53,9.22-18.57-16.82-36.11-23.25c-51.43-11.46-56.49-3.02-34.03,10.76c-13.12-12.84-6.54-15.18,29.86-4.17
			c16,4.79,15.47,31.6,38.89,25.8c5.78-1.95,16.63-9,20.49-20.76c155.13,29.04,149.67,90.21,150.36,165.47
			c11.04-39.3,15.58-85.87-21.77-122.17c68.58-25.59,104.77-69.31,124.79-122.07c4.01,18.57,5.59,38.2,4.41,58.63
			c-65.53,27.09-82.43,66.09-82.43,96.71c-3.04,60.27,11.11,54.87,15.97,88.9c1.78,46.93-90.15,103.48-162.56,158.35
			c-140.09,108.84-380.14,138.64-371,1.86C810.71,984.28,847.51,996.06,880.58,983.38 M820.94,963.31
			c20.86-37.93,44.89-68,71.79-90.94c4.36,45.66,9.65,82.59-18.67,99.9C854.5,979.27,837.18,974.88,820.94,963.31 M1028.01,513.86
			c-1.87,0.46-3.79,0.92-5.76,1.38c1.97-5.16,4.08-11.04,6.17-17.32C1027.88,502.69,1027.73,508,1028.01,513.86 M1064.95,503.32
			c5.2-7.06,8.81-16.44,9.48-25.34c4.89,3.44,9.91,8.38,14.84,14.83C1083.18,496.29,1075.24,499.77,1064.95,503.32 M1042.33,430.64
			c31.32-19.56,47.87-22.26,68.62-17.52c-14.89,28.75,4.4,48.27-6.25,66.07c-19.3-27.23-44.38-36.26-66.4-16.12
			C1041.07,450.85,1042.76,439.33,1042.33,430.64 M1313.72,737.63c-8.76-16.78-17.39-28.45-11.82-60.53
			c9.98-37.03,42.36-68.38,77.18-82.79l8.22-3.08c29.9-9.28,54.55,13.29,68.79,60.86C1465.93,679.34,1386.26,735.12,1313.72,737.63
			 M1182.67,300.32L1182.67,300.32c50.81-5.84,94.79-10.01,125.52-10.96c-21.1-3.45-52.22-4.96-91.93-4.82
			c198.14-101.56,303.32-76.33,447.95,103.16c15.84,17.84,26.61,42.84,17.59,97.02c19.06-49.88,18.34-68.68-6.22-106.5
			c15.06-10.52,30.84-13.53,47.35-9.11c22.83,4.7,36.47,15.32,47.08,27.89c-1.16-18.59-16.4-34.24-42.29-41.33
			c18.86-58.62,10.38-115.91-16.53-158.78c-70.5-87.88-16.17-58.75,35.66,18.44c27.96,41.64,56.61,98.18,68.3,157.32
			c19.34,110.57-68.04,180.82-242.67,174.67c48.48-34.51,57.6-66.44,70.43-104.97c-27.71,50.4-44.92,74.07-92.05,100.42
			c37.6-71.48,28.55-120.33-5.88-207.38c20.68,100.01,24.32,146.99-13.59,207.85c-15.34,24.63-13.9,95.27-62.6,104.4
			c-6.07-29.67-17.68-50.04-33.31-60.86l7.41-224.3l-26.59,216.16c-8.28-1.62-17.26-1.28-26.79,1.02
			c23.55-147.45-147.85-276.44-327.08-215.44C1045.93,309.69,1129.83,315.89,1182.67,300.32 M1057.46,380.91
			c28.33-11.05,56.43-17.01,83.51-18.46c-0.99,8.37-4.17,16.36-9.34,23.1l-6.64,8.65c-1.85,1.93-3.55,3.82-5.09,5.67
			c-2.38,1.61-5.34,2.27-8.21,1.57c-20.81-5.01-51.15,4.92-73.32,20.68C1034.18,414.2,1040.91,399.08,1057.46,380.91 M1037.9,464.84
			c24.24-16.95,45.17-7.24,64.18,17.97c-1.25,1.46-2.74,2.92-4.5,4.37c-20.94-25.75-49.86-31.71-62.89-9.8
			C1035.86,473.18,1036.94,468.98,1037.9,464.84 M761.35,600.78c-37.9,55.56-33.52,123.76,4.68,153.89
			c89.78,64.12,125.75-38.63,87.9-100.5c-46.68-70.11,55.2-139.37,176.2-208.53c1.43,22.54-8.17,52.28-21.89,72.87
			c-59.61,14.09-108.06,13.92-73.06,49.56c16.8,15.85,42.77,23.58,56.64,33.09c-57.49,17.37-99.93,45.51-76.08,121.05
			c-21.85,36.71-26.42,74.4-25.7,109.33c-48.82-0.41-108.72-29.7-162.02-80.1c-4.31-12.46-10.25-20.23-17.99-21.56
			c-0.41-26.34-12.08-40.86-39.43-41.55C670.63,645.28,702.57,616.87,761.35,600.78 M394.48,538.89
			c-6.65,3.74-13.22,8.04-19.62,12.83c-74.04,2.82-131.77,9.62-168.36,23.6C232.51,547.35,314.45,539.79,394.48,538.89
			 M361.81,562.43c-10.25,9.22-19.82,19.87-28.25,31.85c-20.02-6.76-63.59-4.27-124.75,5.11c-11.59,1.81-22.16,3.98-31.83,6.44
			C203.42,578.33,266.19,566.73,361.81,562.43 M437,719.98c-72.9,12.98-66.09-101.13-280.7-30.62
			c-66.16,25.21-86.87-60.98,53.1-74.94c48.12-7.82,84-8.22,114.83-5.57c-2.54,4.43-4.93,9.01-7.15,13.74
			c46.33-51.39,81.76-82.78,163.51-100.15c-1.62-2-3.87-3.6-6.57-4.81c44.38-37.34,7.24-79.37,68.64-89.2
			c40.55-5.02,22.96,14.49,3.29,34.75c-19.31,17.75-33.84,55.87-36.78,81.63c-2.37-2.08-4.83-4.11-7.47-6
			c30.32,52.8,37.68,104.3,10.22,141.03c5.05-2.75,9.5-6.35,13.35-10.59l-0.02,0.04l96.02,86.86c-7.06,18.49-20.72,41.7-42.82,59.53
			L437,719.98z M612.72,719.17l14.58,11.68v0L612.72,719.17z M521.26,1376.48c-13.54,105.39-8.33-137.34-38.05-208.7
			c-41.64-74.17-73.36-256.4,42.54-364.86l38.27,28.42C426.25,1038.73,553.58,967.8,521.26,1376.48 M532.78,1414.31
			c2.49-14.63,5.12-33.52,7.93-57.28c39.33-373.13-108-312.62,43.18-521.87c92.97-91.46,66.38-127.94,37.49-123.15
			c97.1-33.26,76.19,46.83,6.24,212.83c-33.22,78.85-39.68,138.23-5.3,326.27c-10.94-197.94-8.17-240.39,26.56-325.04
			c29.24-71.29,51.58-129.23,58.75-170.07c31.06,56.43,9.57,189.35-22.8,331.54c39.33-73.39,60.59-232.41,48.89-311.4
			c40.92,39.35,98.85,79.73,156.99,71.19c0.01,0.11,0.02,0.21,0.02,0.32c-33.86,18.06-65.67,45.7-93.07,93.88
			c-11.51-13.12-22.74-29.08-34.18-46.2c-10.41,42.28-6.34,75.47,9.16,99.44c-20.42,52.49-37.2,121.95-48.95,214.89
			C685.67,1300,604.63,1367.75,532.78,1414.31 M535.95,1766.1c3.34-0.17,6.67-0.19,9.98-0.13l0.33,0.13
			c0.09-0.04,0.17-0.08,0.26-0.12c64.64,1.4,124.42,45.63,160.32,120.77c1.56,4.74,3.16,9.34,4.81,13.84
			c-19.65,35.72-51.74,27.75-64.36,41.25c-13.68-23.62-25.66-53.69-35.74-91c-22.93,16.92-43.54,40.1-58.43,65.2
			C508.9,1886.52,479.73,1805.13,535.95,1766.1 M617.1,2064.05c-123.6-25.61-72.45-132.19-14.97-193.84
			c-4.09,86.02,5.15,152.42,34.07,195.99C630.35,2065.7,624.02,2064.99,617.1,2064.05 M655.32,2067.22
			c-33.7-44.76-46.51-108.56-44.37-188.91c9.56,34.19,21.67,61.36,35.32,84.33c25.35,9.39,37.56,36.24,51.4,57.66
			c-8.47-25.26-16.7-50.69-41.67-64.59c11.79-16.79,35.3,0.16,64.49-33.1c21.48,48.75,49.41,80.96,83.72,102.66
			C713.6,2041.81,713.97,2067.89,655.32,2067.22 M722.13,1881.36c-26.81-70.88-101.69-115.41-156.24-124.62
			c123.03-62.13,146.29-142.79,153.54-239.53c24.53,234.36,78.39,420.02,181.89,526.54
			C810.99,2025.36,757.72,1971.14,722.13,1881.36 M1037.98,2041.83c-1.11,2.05-2.08,4.11-2.95,6.19
			c-37.03,3.43-70.07,3.69-99.63,0.78c-124.69-98.76-188.67-323.53-210.85-635.37c1.62-29.04,4.15-59.2,9.24-90.43
			c9.83-128,30.83-228.3,61.4-304.84c63.59,45.14,200.78,23.81,354.32-67.42c20.03-13.97,39.78-28.1,58.41-42.08
			c12.89,30.58,62.41,44.55,61.9,71.72c-103.01-19.93-317.94,144.16-385.76,337.42c79.58-162.28,288.63-336.58,381.95-319.46
			c15.47,40.43,67.9,36.92,70.63,60.75c-155.79,46.09-165.32,168.9-121.83,283.79l-294.54,339.64l301.82-321.6
			c2.04,4.75,4.15,9.48,6.35,14.18l-198.52,454.92l207.55-435.75c12.09,94.21,39.27,175.87,74.96,241.68L1037.98,2041.83z
			 M1236.96,2096c-52.1-2.66-53.23-23.52-39.06-65.82c39.46-33.94,71.55-84.4,128.17-124.07l8.87,72.36
			c-23.74-24.11-70.45-6.36-101.1,48.08c56.97-58.75,82.3-53.48,106.5-18.06c7.18,8.43,16.33,11.05,25.93,12.38
			c-14.9,8.05-33.47,21.77-29.48,68.19c6.36-76.66,64.54-56.06,55.4-85.58c-9.17-35.2-9.14-63.35,0.57-73.22
			c36.07,70.29,24.46,140.47-20.92,202.67C1324.71,2140.82,1317.33,2106.2,1236.96,2096 M1474.58,2087.67
			c-39.44,22.51-66.68,35.27-87.16,41.51c50.4-64.08,48.31-122.23,19.9-194.15C1475.65,1945.41,1522.51,2054.46,1474.58,2087.67
			 M1490.81,1987.54c-18.17-35.33-51.28-65.38-104.88-69.68c-13.54,10.77-11.98,55.78-3.47,83c1.13,3.07,1.25,5.51,0.6,7.56
			c-11.72,1.73-20.84,3.03-30.41-3.68l-11.76-108.41c42.38-26.17,97.92-46.02,177.34-50.35
			C1563.65,1843.11,1528.02,1959.32,1490.81,1987.54 M1483.76,1830.27c-147.29,6.38-246.27,148.81-330.2,203.22l216-313.48
			c12.34,14.43,25.13,27.37,38.21,38.75C1421.88,1787.21,1443.41,1811.34,1483.76,1830.27 M1482.79,1785.96
			c-39.63-17.13-73.94-44.08-103.72-79.74l30.38-44.1c2.92,8.55,5.75,17.06,8.43,25.5c81.12,159.83,58.46,58.7,33.92-86.96
			l3.95-5.73C1468.14,1715.84,1554.23,1824.8,1482.79,1785.96 M1417.95,1649.8l21.24-30.83c34.95,121.73,40.12,185.15-14.36,56.85
			C1422.67,1667.16,1420.36,1658.48,1417.95,1649.8 M1115.07,2050.16c-41.51,54.3-73.38,37.47-39.59-18.75l397.22-580.31
			c2.57,12.45,10.21,25.05,23.72,36.36L1115.07,2050.16z M1512.34,1483.44c-38.9-25.69-38.02-55.52-5.41-72.43
			c15.51,18.78,49.51,41.25,83.71,59.41c0.91,0.44,1.82,0.83,2.74,1.22C1589.14,1492.91,1563.52,1513.51,1512.34,1483.44
			 M1595.98,1454.91c-31.23-13.27-67.93-38.63-80.35-54.3c-11.62-17.73,10.17-47.74,32.34-59.25c5.87,7.37,13.66,12.63,23.05,15.27
			c5.58,1.57,11.33,2.11,17.07,1.64c34.97,25.71,56.78,45.26,73.73,54.39C1666.19,1440.33,1631.52,1470.68,1595.98,1454.91
			 M1697.42,1392.28c-26.63,27.86-55.22-13.61-91.54-38.75c18.01-8.24,33.94-26.73,41.7-54.29c1.82-6.46,3.08-12.88,3.83-19.17
			C1702.48,1305.69,1724.75,1351.67,1697.42,1392.28 M1651.92,1258.03c-1.39-18.06-7.37-33.66-17.02-43.89l37.09-54.19
			c3.13,3.41,6.57,6.88,10.33,10.43c6.8,5.12,13.59,9.38,20.28,12.85L1651.92,1258.03z M1695.34,1156.32
			c-50.8-44.36-35.06-77.89-12.23-92.13c-2.88,22.27,2.2,43.9,16.91,63.48c24.89,25.76,49.69,35.17,70.96,33.43
			C1764.9,1180.2,1732.6,1181.55,1695.34,1156.32 M1709.93,1120.38c-32.37-40.7-9.44-89.65,23.21-123.24
			c3.36,19.17,11.06,42.73,24.19,72.2c14.19,29.75,28.07,49.26,41.05,61.06C1782.01,1155.46,1744.81,1156.6,1709.93,1120.38
			 M1767.22,1062.04c-28.11-59.83-29.11-109.23-1.02-125.97c6.86,26.16,26.37,54.88,61.83,76.84c-3.2,38.86,13.66,75.07,32.95,77.26
			C1855.92,1149.93,1811.11,1159.04,1767.22,1062.04 M1859.46,1078.5c-15.01-11.47-22.53-35.25-19.81-60.11
			c36.24,15.25,65.97,20.68,89.89,19.71C1926.6,1054.49,1894.27,1074.85,1859.46,1078.5 M1836.13,1003.18
			c-81.91-54.52-68.33-102.38-42.13-117.24c1.39,65.19,54.65,117.62,120.16,117.62c30.4,0,58.13-11.3,79.3-29.9
			C1988.33,1003.98,1941.75,1060.39,1836.13,1003.18 M945.61,729.88c0.34-3.75,0.75-7.34,1.21-10.82
			c8.69,31.18,28.58,31.46,46.9-3.53c10.8,6.6,24.36,10.35,39.37,11.53c-93.18,63.25-83.94,133.58-59.94,204.93
			c-12.41-75.59-19.75-137.58,69.59-204.51c10.42,0.07,21.35-0.98,32.4-3.07l-0.64,0.46c12.14,95.74,101.14,52.9,111.12-57.12
			c55.11,58.82,43.93,116.92-28.87,175.01c83.34-46.1,93.5-140.38,26.18-194.29c-62.91,36.43-126.19,49.48-149.47-25
			c-0.28,2.46-0.35,4.91-0.23,7.32c-68.6,0.5-87.67,39.91-89.12,75.22l0,0c0,0,0,0.01,0,0.02
			C943.76,714.39,944.4,722.54,945.61,729.88 M1082.62,722.82c35.64-8.25,71.55-27.09,94.38-53.8
			C1164.3,783.92,1088.23,803.29,1082.62,722.82 M1034.09,637.47c4.97,24.1,29.6,43.8,61.04,46.96
			c-53.9,10.78-101.63-0.3-117.65-33.32C991.51,640.53,1010.22,636.78,1034.09,637.47 M1177.88,659.84l-0.01,0.02
			c-82.6,88.99-204.67,77.58-204.36,2.59C1001.12,708.36,1088.24,717.43,1177.88,659.84 M970.68,657.16c0,0.01,0.01,0.02,0.02,0.03
			l-0.11,0.07C970.62,657.22,970.65,657.19,970.68,657.16 M968.83,659.19c-2.46,22.34,4.02,38.74,16.21,49.86
			c-7.35,35.22-35.46,35.76-35.54-6.06C953.56,683.66,959.94,669.39,968.83,659.19 M1223.42,573.46c2.88-14.6,0-39.61-7.5-51.28
			c-20.52-41.82-65.13-49.26-74.49,14.52C1139.41,570.88,1171.85,581.26,1223.42,573.46 M1197.45,510.45
			c3.64,4.6,7.07,10.45,10.11,17.61c7,10.58,8.35,20.11,8.35,40.17c-26.52,1.78-49.12,1.03-59.81-8.56
			C1169.23,553.18,1192.54,527.32,1197.45,510.45 M1235.92,561c-8.59-63.41-43.65-100.27-81.89-68.62
			C1195.62,468.31,1219.3,503.07,1235.92,561 M1297.38,527.04c12.27-29.13,22.14-79.72,2.08-106.22
			c-30.39-20.65-60.94-47.66-91.16-42.19c-26.98,12.74-31.65,32.7-18.75,58.36C1229.17,466.69,1256.23,471.87,1297.38,527.04
			 M1215.08,392.17c28.31-1.82,53.32,14.83,70.84,33.86c12.24,8.33,15.37,60.78,4.17,76.57c-19.27-36.2-53.54-49.68-87.51-70.84
			C1182.64,419.15,1194.23,393.22,1215.08,392.17"/>
	</g>
</g>
</svg>
